<svg width="127" height="127" viewBox="0 0 127 127" fill="none" xmlns="http://www.w3.org/2000/svg">
<path d="M81.2695 75.8402C81.503 76.285 81.6662 76.6113 81.8422 76.9248C85.659 83.7011 89.4791 90.4742 93.2864 97.2506C93.4943 97.6217 93.7183 98.028 93.7631 98.4375C93.8751 99.5189 92.8449 100.197 91.6355 99.8517C88.4329 98.9366 85.2399 97.996 82.0405 97.0682C81.2151 96.8282 80.3864 96.5979 79.4458 96.3291C79.0459 97.7976 78.6556 99.2118 78.278 100.629C77.5838 103.221 76.8895 105.812 76.2112 108.407C76.0097 109.171 75.6961 109.831 74.8195 109.933C73.9429 110.035 73.4918 109.459 73.1046 108.775C70.142 103.502 67.1666 98.236 64.1943 92.9666C64.0344 92.6818 63.8584 92.4067 63.628 92.0228C63.3945 92.4067 63.2185 92.6818 63.0586 92.9666C60.1471 98.1272 57.2389 103.288 54.3306 108.448C54.2698 108.557 54.2059 108.663 54.1515 108.772C53.7899 109.469 53.3164 110.035 52.4398 109.933C51.5632 109.831 51.2464 109.171 51.0481 108.41C50.3026 105.575 49.5443 102.747 48.7861 99.9156C48.4757 98.7575 48.1558 97.6025 47.8135 96.3387C46.0538 96.8442 44.3453 97.3305 42.6401 97.8232C40.4197 98.4631 38.1961 99.103 35.9789 99.7589C35.1791 99.9956 34.3952 100.181 33.7842 99.3909C33.2051 98.6391 33.557 97.9544 33.9537 97.2538C37.7802 90.4838 41.5939 83.7075 45.4107 76.9312C45.5867 76.6177 45.7499 76.2914 45.9834 75.8434C45.2764 75.8818 44.7037 75.9042 44.131 75.9458C40.8164 76.173 38.1897 73.6263 38.3369 70.3117C38.3881 69.1695 38.4521 68.0273 38.5224 66.8884C38.596 65.7206 38.1609 64.8503 37.0955 64.316C36.0749 63.8041 35.0543 63.2954 34.0433 62.7643C31.0231 61.1775 30.1209 57.8565 31.9253 54.977C32.5492 53.982 33.1987 53.0062 33.8385 52.024C34.44 51.0962 34.4336 50.1716 33.8321 49.2469C33.2083 48.2903 32.5748 47.3401 31.9637 46.3771C30.1113 43.4496 31.0039 40.1159 34.0593 38.5194C35.0703 37.9915 36.0909 37.4796 37.1083 36.9645C38.1705 36.427 38.5992 35.5503 38.5224 34.3826C38.4457 33.2436 38.3849 32.1014 38.3369 30.9592C38.1993 27.7438 40.6468 25.2547 43.8654 25.3443C45.0076 25.3763 46.1498 25.4403 47.2888 25.5235C48.5333 25.6162 49.4452 25.1683 50.0051 24.023C50.5074 22.9991 51.0193 21.9785 51.5568 20.9707C53.1149 18.0497 56.391 17.1475 59.2161 18.8719C60.2175 19.483 61.1965 20.1325 62.1691 20.7852C63.1545 21.4506 64.1176 21.4442 65.103 20.7916C66.0788 20.1421 67.0578 19.4926 68.0528 18.8751C70.8043 17.1635 74.122 18.0337 75.6705 20.8844C76.2432 21.9401 76.7743 23.0215 77.3086 24.0997C77.8397 25.1747 78.7164 25.5971 79.8777 25.5299C81.0199 25.4627 82.1589 25.3923 83.3011 25.3475C86.6189 25.2195 89.0856 27.7246 88.9224 31.0456C88.8648 32.1878 88.8008 33.3268 88.74 34.469C88.6825 35.5983 89.1176 36.4398 90.1542 36.9517C91.1492 37.4412 92.141 37.9403 93.1264 38.4554C96.2842 40.1063 97.1704 43.4368 95.254 46.4475C94.6557 47.3849 94.0478 48.3127 93.4367 49.2437C92.8289 50.1684 92.8193 51.0866 93.4239 52.0144C94.0798 53.0222 94.7517 54.0236 95.3852 55.0474C97.0968 57.8181 96.2362 61.1103 93.3856 62.6716C92.3298 63.2507 91.2516 63.7849 90.1734 64.316C89.0952 64.8471 88.6697 65.7142 88.74 66.8788C88.8072 67.9889 88.8616 69.0991 88.9192 70.2093C89.0952 73.6359 86.4685 76.1922 83.0483 75.933C82.5044 75.8914 81.9605 75.8754 81.2823 75.837L81.2695 75.8402ZM81.2663 72.6345L81.3047 72.8584C81.9509 72.8936 82.6004 72.9352 83.2467 72.9672C84.968 73.0504 85.9918 72.049 85.931 70.3213C85.8926 69.2111 85.8126 68.1009 85.7582 66.9907C85.6494 64.6776 86.5837 62.9179 88.6153 61.7853C89.6391 61.2158 90.7077 60.7295 91.7443 60.1824C93.3344 59.3442 93.7055 57.9941 92.7585 56.4807C92.1378 55.4857 91.4627 54.5259 90.8516 53.5245C89.6839 51.6081 89.6871 49.6692 90.8548 47.7528C91.4339 46.8058 92.0706 45.894 92.6689 44.9566C93.7503 43.2705 93.376 41.9331 91.5747 41.0117C90.5861 40.5062 89.5751 40.0423 88.6089 39.5016C86.5837 38.3658 85.6494 36.6093 85.7614 34.293C85.8158 33.1828 85.8926 32.0726 85.9342 30.9624C85.995 29.2316 84.9968 28.2525 83.2499 28.3197C82.1717 28.3613 81.0903 28.4349 80.0121 28.4861C77.6638 28.6013 75.8785 27.6671 74.7395 25.5939C74.218 24.65 73.7573 23.671 73.2678 22.7112C72.308 20.8428 71.0186 20.4876 69.2718 21.6138C68.3631 22.1993 67.4737 22.8104 66.5523 23.3735C64.5719 24.5828 62.5818 24.5604 60.6174 23.3255C59.6256 22.7016 58.669 22.0201 57.6676 21.4123C56.2855 20.5708 54.9289 20.9515 54.1579 22.3881C53.5884 23.4471 53.0893 24.5445 52.5102 25.5971C51.3712 27.6735 49.5827 28.6045 47.2344 28.4893C46.1562 28.4381 45.078 28.3645 43.9966 28.3229C42.2465 28.2557 41.2515 29.2316 41.3155 30.9656C41.3539 32.047 41.4243 33.1252 41.4819 34.2034C41.6099 36.5933 40.666 38.3978 38.548 39.5464C37.5178 40.1031 36.4556 40.6054 35.4222 41.1557C33.9377 41.9459 33.557 43.3057 34.4368 44.7262C35.0543 45.7244 35.7326 46.681 36.3501 47.6792C37.5754 49.6533 37.5658 51.6433 36.3469 53.6141C35.7774 54.5323 35.1599 55.4185 34.5776 56.3304C33.4962 58.0197 33.8641 59.3442 35.6718 60.2688C36.6604 60.7743 37.6746 61.235 38.6408 61.7821C40.6628 62.9211 41.5939 64.684 41.4883 66.9971C41.4371 68.1393 41.3443 69.2783 41.3155 70.4205C41.2739 72.033 42.3009 73.0344 43.9134 72.9768C45.0236 72.9384 46.1338 72.8744 47.244 72.8008C49.6595 72.6409 51.4096 73.6743 52.5518 75.7699C53.0989 76.7713 53.5788 77.8079 54.1131 78.8157C54.9289 80.3546 56.2727 80.7289 57.7476 79.8203C58.7202 79.222 59.6608 78.5725 60.6238 77.9582C62.6234 76.6817 64.6359 76.7137 66.6355 77.9518C67.6049 78.5533 68.5455 79.206 69.5053 79.8171C70.9067 80.7097 72.308 80.3578 73.095 78.8957C73.6645 77.8367 74.1892 76.7521 74.7395 75.6835C75.3122 74.5733 76.1441 73.6359 77.3246 73.2903C78.5948 72.9192 79.9513 72.8424 81.2727 72.6409L81.2663 72.6345ZM53.1085 104.564C57.5524 96.6779 61.8908 88.9833 66.2196 81.3016C64.1367 79.6315 63.5097 79.5995 61.3949 80.9817C60.6206 81.4872 59.8592 82.0183 59.0625 82.4854C56.3398 84.0787 53.1117 83.1764 51.5983 80.4026C51.0385 79.3756 50.5425 78.3102 49.9923 77.2768C49.8035 76.9216 49.5411 76.6049 49.2372 76.1634C45.4747 82.8405 41.8018 89.3577 38.0329 96.0508C38.516 95.9196 38.8008 95.8492 39.0855 95.766C42.0738 94.899 45.062 94.0224 48.0534 93.1617C49.3716 92.781 50.0306 93.1585 50.3954 94.4831C50.7409 95.7308 51.0609 96.985 51.3968 98.236C51.9471 100.277 52.5006 102.315 53.1085 104.564ZM68.6703 83.0101C67.7425 84.6514 66.7634 86.4334 65.73 88.1803C65.4037 88.7274 65.4229 89.1369 65.7364 89.6872C68.3791 94.3199 70.993 98.975 73.6133 103.621C73.7573 103.876 73.9173 104.12 74.138 104.481C74.2532 104.107 74.33 103.876 74.394 103.643C75.2034 100.636 76.0065 97.6313 76.8159 94.6239C77.2222 93.1201 77.8301 92.7778 79.3274 93.2097C82.1109 94.0128 84.8912 94.8222 87.6746 95.6253C88.1226 95.7532 88.5801 95.8556 89.2008 96.0124C85.4287 89.3257 81.7526 82.8053 77.9933 76.141C77.6862 76.6081 77.427 76.9408 77.235 77.3088C76.6879 78.3454 76.1888 79.4044 75.6353 80.4378C74.7907 82.0119 73.463 82.9909 71.7065 83.1988C70.7563 83.3108 69.7677 83.0933 68.6735 83.0133L68.6703 83.0101Z" fill="white"/>
<path d="M63.6152 72.8616C51.4448 72.884 41.4275 62.8923 41.4019 50.7027C41.3763 38.4906 51.3232 28.4509 63.4873 28.4125C75.7601 28.3741 85.8126 38.3178 85.8446 50.5235C85.8734 62.8219 75.9073 72.8392 63.6152 72.8616ZM63.628 69.8894C74.1988 69.9278 82.866 61.2382 82.8788 50.5907C82.8916 40.1095 74.1988 31.3975 63.7144 31.3847C53.1469 31.3719 44.4381 39.9399 44.3741 50.4147C44.3101 61.1615 52.9037 69.851 63.628 69.8894Z" fill="white"/>
</svg>
