<svg width="127" height="127" viewBox="0 0 127 127" fill="none" xmlns="http://www.w3.org/2000/svg">
<path d="M65.6344 28C66.9813 28.1824 68.3443 28.3007 69.6784 28.5535C80.9179 30.6843 89.3259 36.7919 94.8672 46.7676C98.0282 52.4561 99.4615 58.6405 99.0488 65.1257C98.2042 78.4128 91.8726 88.3725 80.2876 94.8928C74.6407 98.0698 68.4595 99.4455 61.9967 99.0552C49.3911 98.2938 39.7098 92.4549 33.039 81.7497C30.0924 77.0242 28.5151 71.8028 28.1184 66.2391C28.1024 66.0375 28.0416 65.8392 28 65.6408V61.4752C28.0416 61.2768 28.1024 61.0785 28.1184 60.8769C28.4671 55.8923 29.7885 51.1732 32.2136 46.8156C37.7645 36.8207 46.1693 30.6907 57.428 28.5535C58.7621 28.3007 60.1219 28.1824 61.4688 28C62.8573 28 64.2459 28 65.6344 28ZM96.0286 63.5484C96.019 45.6702 81.4394 31.0906 63.5612 31.0778C45.6958 31.065 31.1066 45.6382 31.0746 63.5292C31.0394 81.4042 45.7022 96.067 63.5772 96.035C81.4682 96.003 96.0414 81.417 96.0318 63.5484H96.0286Z" fill="white"/>
<path d="M55.8347 55.8379V54.9293C55.8347 51.829 55.8347 48.7288 55.8347 45.6254C55.8347 44.0161 56.337 43.5202 57.9527 43.5202C61.7024 43.5202 65.4488 43.5202 69.1985 43.5202C70.7598 43.5202 71.2653 44.0289 71.2653 45.6062C71.2685 48.7064 71.2653 51.8066 71.2653 54.9101C71.2653 55.182 71.2653 55.4571 71.2653 55.8379C71.5949 55.8379 71.8636 55.8379 72.1292 55.8379C75.2294 55.8379 78.3296 55.8379 81.433 55.8379C83.0103 55.8379 83.583 56.401 83.583 57.9527C83.583 61.7024 83.583 65.4488 83.583 69.1985C83.583 70.7662 83.0775 71.2685 81.5002 71.2685C78.4 71.2717 75.2998 71.2685 72.1964 71.2685H71.2653C71.2653 71.5949 71.2653 71.8636 71.2653 72.1292C71.2653 75.2294 71.2653 78.3296 71.2653 81.433C71.2653 83.1063 70.7854 83.5862 69.1249 83.5894C65.3753 83.5894 61.6256 83.5894 57.8791 83.5894C56.3562 83.5894 55.8347 83.0711 55.8315 81.5514C55.8251 78.4288 55.8315 75.303 55.8315 72.1804C55.8315 71.9084 55.8315 71.6365 55.8315 71.2717H54.9452C51.8898 71.2717 48.8344 71.2717 45.7822 71.2717C43.9585 71.2717 43.5138 70.8334 43.5138 69.0386C43.5138 65.3817 43.5138 61.7248 43.5138 58.0711C43.5138 56.2986 43.9649 55.8411 45.715 55.8411C48.7704 55.8411 51.8258 55.8411 54.8781 55.8411H55.8315L55.8347 55.8379ZM46.6204 68.1683H47.4299C50.5557 68.1683 53.6783 68.1683 56.8041 68.1683C58.3878 68.1683 58.9349 68.7122 58.9349 70.2895C58.9349 73.4377 58.9349 76.5859 58.9349 79.7341C58.9349 79.9773 58.9349 80.2204 58.9349 80.4668H68.1651V79.6765C68.1651 76.5507 68.1651 73.4281 68.1651 70.3023C68.1651 68.7186 68.709 68.1715 70.2863 68.1715C73.4569 68.1715 76.6275 68.1715 79.8013 68.1715H80.5724V58.9413C80.262 58.9413 79.9901 58.9413 79.7213 58.9413C76.5731 58.9413 73.4249 58.9445 70.2767 58.9413C68.8274 58.9413 68.2707 58.375 68.2707 56.9225C68.2707 53.7519 68.2707 50.5813 68.2707 47.4075V46.646H58.9381V47.4363C58.9381 50.5621 58.9381 53.6847 58.9381 56.8105C58.9381 58.3942 58.3942 58.9413 56.8169 58.9413C53.6687 58.9413 50.5205 58.9413 47.3723 58.9413C47.1291 58.9413 46.886 58.9413 46.6204 58.9413V68.1715V68.1683Z" fill="white"/>
</svg>
