<svg width="127" height="127" viewBox="0 0 127 127" fill="none" xmlns="http://www.w3.org/2000/svg">
<path d="M87.7751 69.5152C87.7751 60.0098 87.7751 50.5076 87.7751 41.0022C87.7751 39.0346 88.4534 38.3531 90.4242 38.3499C92.7726 38.3467 95.1209 38.3435 97.4661 38.3499C99.2737 38.3563 99.9968 39.0794 100 40.8646C100 60.013 100 79.1645 100 98.3129C100 100.105 99.2801 100.824 97.4789 100.834C95.1305 100.844 92.7822 100.84 90.437 100.834C88.4534 100.831 87.7783 100.159 87.7783 98.1945C87.7783 88.6347 87.7783 79.0717 87.7783 69.512L87.7751 69.5152ZM90.5618 98.0601H97.2485V41.1174H90.5618V98.0601Z" fill="white"/>
<path d="M85.0591 77.7472C85.0591 84.5907 85.0591 91.4374 85.0591 98.2809C85.0591 100.098 84.3584 100.824 82.57 100.834C80.1384 100.844 77.7069 100.847 75.2722 100.834C73.5733 100.824 72.8342 100.079 72.8342 98.4024C72.8342 84.6291 72.8342 70.8557 72.8342 57.0823C72.8342 55.4442 73.5765 54.6668 75.1954 54.654C77.6845 54.6348 80.1736 54.638 82.6628 54.654C84.3296 54.6636 85.0591 55.4315 85.0591 57.1303C85.0591 64.0026 85.0591 70.8749 85.0591 77.7472ZM75.5921 57.4119V98.0569H82.3012V57.4151H75.5921V57.4119Z" fill="white"/>
<path d="M85.958 29.2349C84.9758 29.4173 84.1216 29.5773 83.2673 29.734C82.2147 29.926 81.4917 29.5517 81.3317 28.7294C81.1621 27.8656 81.6964 27.2609 82.8002 27.053C84.5215 26.733 86.2428 26.4067 87.9672 26.0867C89.4294 25.8148 89.9157 26.1443 90.1972 27.6192C90.5428 29.4237 90.8851 31.2282 91.1986 33.0358C91.365 33.986 90.9683 34.6195 90.178 34.7923C89.4102 34.9618 88.7703 34.4915 88.5655 33.5637C88.3928 32.7927 88.2616 32.012 88.0792 31.0618C87.8009 31.4873 87.6057 31.7848 87.4138 32.0824C76.3087 49.4743 61.6523 62.9853 43.2078 72.2859C39.231 74.2919 35.0366 75.8564 30.9381 77.6225C30.7558 77.6993 30.5702 77.7697 30.3783 77.8176C29.5816 78.0128 28.9001 77.6673 28.6666 76.9666C28.4266 76.2435 28.7306 75.5781 29.5112 75.2645C31.0565 74.6407 32.6242 74.0776 34.1663 73.4473C50.9055 66.5942 65.0116 56.1514 76.619 42.3012C79.8568 38.4364 82.8002 34.3572 85.4621 30.0764C85.6093 29.8428 85.7405 29.5997 85.9548 29.2381L85.958 29.2349Z" fill="white"/>
<path d="M70.1147 84.6355C70.1147 89.1883 70.1147 93.741 70.1147 98.2937C70.1147 100.098 69.4044 100.828 67.616 100.834C65.1844 100.844 62.7529 100.847 60.3214 100.834C58.6321 100.824 57.893 100.076 57.893 98.3961C57.893 89.1499 57.893 79.9036 57.893 70.6574C57.893 69.0225 58.6353 68.2547 60.2638 68.2419C62.7529 68.2227 65.242 68.2259 67.728 68.2419C69.3628 68.2515 70.1115 69.0193 70.1147 70.6414C70.1179 75.3061 70.1147 79.974 70.1147 84.6387V84.6355ZM67.3568 98.0922V71.0029H60.6669V98.0922H67.3568Z" fill="white"/>
<path d="M55.1734 88.622C55.1734 91.8726 55.1734 95.1232 55.1734 98.377C55.1734 100.066 54.4407 100.825 52.7642 100.834C50.3039 100.85 47.8436 100.847 45.3864 100.834C43.6939 100.825 42.9517 100.079 42.9517 98.4026C42.9517 91.8726 42.9485 85.3427 42.9517 78.8095C42.9517 77.1746 43.6939 76.4036 45.3192 76.3908C47.8084 76.3716 50.2943 76.3748 52.7834 76.3908C54.4183 76.4004 55.1734 77.1682 55.1766 78.7839C55.183 82.0633 55.1766 85.3427 55.1766 88.622H55.1734ZM45.7064 79.1583V98.0634H52.4187V79.1583H45.7064Z" fill="white"/>
<path d="M28.0043 92.6084C28.0043 90.6855 27.9979 88.7659 28.0043 86.8431C28.0107 85.365 28.7625 84.5619 30.2278 84.5427C32.8289 84.5139 35.4268 84.5107 38.0279 84.5427C39.4549 84.5619 40.2195 85.3682 40.2227 86.7855C40.2323 90.7143 40.2323 94.6432 40.2227 98.572C40.2195 99.9926 39.4549 100.805 38.0407 100.821C35.4396 100.853 32.8417 100.85 30.2406 100.821C28.7689 100.805 28.0107 100.009 28.0043 98.54C27.9947 96.5628 28.0043 94.5824 28.0043 92.6052V92.6084ZM37.4681 87.2974H30.7781V98.0729H37.4681V87.2974Z" fill="white"/>
</svg>
